<mxfile host="app.diagrams.net" modified="2020-08-03T18:26:26.936Z" agent="5.0 (Windows NT 6.3; Win64; x64) AppleWebKit/537.36 (KHTML, like Gecko) Chrome/80.0.3987.149 Safari/537.36" etag="HiJ8viFmWkYLFY0i1rBs" version="13.5.9" type="github">
  <diagram id="R2lEEEUBdFMjLlhIrx00" name="Page-1">
    <mxGraphModel dx="868" dy="488" grid="1" gridSize="10" guides="1" tooltips="1" connect="1" arrows="1" fold="1" page="1" pageScale="1" pageWidth="850" pageHeight="1100" math="0" shadow="0" extFonts="Permanent Marker^https://fonts.googleapis.com/css?family=Permanent+Marker">
      <root>
        <mxCell id="0" />
        <mxCell id="1" parent="0" />
        <mxCell id="UlUVK7WOqjUsJn8yde_S-92" value="profiles" style="shape=table;startSize=30;container=1;collapsible=1;childLayout=tableLayout;fixedRows=1;rowLines=0;fontStyle=1;align=center;resizeLast=1;" vertex="1" parent="1">
          <mxGeometry x="120" y="50" width="220" height="190" as="geometry" />
        </mxCell>
        <mxCell id="UlUVK7WOqjUsJn8yde_S-93" value="" style="shape=partialRectangle;collapsible=0;dropTarget=0;pointerEvents=0;fillColor=none;top=0;left=0;bottom=1;right=0;points=[[0,0.5],[1,0.5]];portConstraint=eastwest;" vertex="1" parent="UlUVK7WOqjUsJn8yde_S-92">
          <mxGeometry y="30" width="220" height="30" as="geometry" />
        </mxCell>
        <mxCell id="UlUVK7WOqjUsJn8yde_S-94" value="PK" style="shape=partialRectangle;connectable=0;fillColor=none;top=0;left=0;bottom=0;right=0;fontStyle=1;overflow=hidden;" vertex="1" parent="UlUVK7WOqjUsJn8yde_S-93">
          <mxGeometry width="30" height="30" as="geometry" />
        </mxCell>
        <mxCell id="UlUVK7WOqjUsJn8yde_S-95" value="id (INT(7))" style="shape=partialRectangle;connectable=0;fillColor=none;top=0;left=0;bottom=0;right=0;align=left;spacingLeft=6;fontStyle=5;overflow=hidden;" vertex="1" parent="UlUVK7WOqjUsJn8yde_S-93">
          <mxGeometry x="30" width="190" height="30" as="geometry" />
        </mxCell>
        <mxCell id="UlUVK7WOqjUsJn8yde_S-96" value="" style="shape=partialRectangle;collapsible=0;dropTarget=0;pointerEvents=0;fillColor=none;top=0;left=0;bottom=0;right=0;points=[[0,0.5],[1,0.5]];portConstraint=eastwest;" vertex="1" parent="UlUVK7WOqjUsJn8yde_S-92">
          <mxGeometry y="60" width="220" height="30" as="geometry" />
        </mxCell>
        <mxCell id="UlUVK7WOqjUsJn8yde_S-97" value="" style="shape=partialRectangle;connectable=0;fillColor=none;top=0;left=0;bottom=0;right=0;editable=1;overflow=hidden;" vertex="1" parent="UlUVK7WOqjUsJn8yde_S-96">
          <mxGeometry width="30" height="30" as="geometry" />
        </mxCell>
        <mxCell id="UlUVK7WOqjUsJn8yde_S-98" value="nama_lengkap (VARCHAR(50))" style="shape=partialRectangle;connectable=0;fillColor=none;top=0;left=0;bottom=0;right=0;align=left;spacingLeft=6;overflow=hidden;" vertex="1" parent="UlUVK7WOqjUsJn8yde_S-96">
          <mxGeometry x="30" width="190" height="30" as="geometry" />
        </mxCell>
        <mxCell id="UlUVK7WOqjUsJn8yde_S-99" value="" style="shape=partialRectangle;collapsible=0;dropTarget=0;pointerEvents=0;fillColor=none;top=0;left=0;bottom=0;right=0;points=[[0,0.5],[1,0.5]];portConstraint=eastwest;" vertex="1" parent="UlUVK7WOqjUsJn8yde_S-92">
          <mxGeometry y="90" width="220" height="30" as="geometry" />
        </mxCell>
        <mxCell id="UlUVK7WOqjUsJn8yde_S-100" value="" style="shape=partialRectangle;connectable=0;fillColor=none;top=0;left=0;bottom=0;right=0;editable=1;overflow=hidden;" vertex="1" parent="UlUVK7WOqjUsJn8yde_S-99">
          <mxGeometry width="30" height="30" as="geometry" />
        </mxCell>
        <mxCell id="UlUVK7WOqjUsJn8yde_S-101" value="alamat (VARCHAR(90))" style="shape=partialRectangle;connectable=0;fillColor=none;top=0;left=0;bottom=0;right=0;align=left;spacingLeft=6;overflow=hidden;" vertex="1" parent="UlUVK7WOqjUsJn8yde_S-99">
          <mxGeometry x="30" width="190" height="30" as="geometry" />
        </mxCell>
        <mxCell id="UlUVK7WOqjUsJn8yde_S-102" value="" style="shape=partialRectangle;collapsible=0;dropTarget=0;pointerEvents=0;fillColor=none;top=0;left=0;bottom=0;right=0;points=[[0,0.5],[1,0.5]];portConstraint=eastwest;" vertex="1" parent="UlUVK7WOqjUsJn8yde_S-92">
          <mxGeometry y="120" width="220" height="30" as="geometry" />
        </mxCell>
        <mxCell id="UlUVK7WOqjUsJn8yde_S-103" value="" style="shape=partialRectangle;connectable=0;fillColor=none;top=0;left=0;bottom=0;right=0;editable=1;overflow=hidden;" vertex="1" parent="UlUVK7WOqjUsJn8yde_S-102">
          <mxGeometry width="30" height="30" as="geometry" />
        </mxCell>
        <mxCell id="UlUVK7WOqjUsJn8yde_S-104" value="email (VARCHAR(30))" style="shape=partialRectangle;connectable=0;fillColor=none;top=0;left=0;bottom=0;right=0;align=left;spacingLeft=6;overflow=hidden;" vertex="1" parent="UlUVK7WOqjUsJn8yde_S-102">
          <mxGeometry x="30" width="190" height="30" as="geometry" />
        </mxCell>
        <mxCell id="UlUVK7WOqjUsJn8yde_S-105" value="" style="shape=partialRectangle;collapsible=0;dropTarget=0;pointerEvents=0;fillColor=none;top=0;left=0;bottom=0;right=0;points=[[0,0.5],[1,0.5]];portConstraint=eastwest;" vertex="1" parent="UlUVK7WOqjUsJn8yde_S-92">
          <mxGeometry y="150" width="220" height="30" as="geometry" />
        </mxCell>
        <mxCell id="UlUVK7WOqjUsJn8yde_S-106" value="" style="shape=partialRectangle;connectable=0;fillColor=none;top=0;left=0;bottom=0;right=0;editable=1;overflow=hidden;" vertex="1" parent="UlUVK7WOqjUsJn8yde_S-105">
          <mxGeometry width="30" height="30" as="geometry" />
        </mxCell>
        <mxCell id="UlUVK7WOqjUsJn8yde_S-107" value="photo (BLOB)" style="shape=partialRectangle;connectable=0;fillColor=none;top=0;left=0;bottom=0;right=0;align=left;spacingLeft=6;overflow=hidden;" vertex="1" parent="UlUVK7WOqjUsJn8yde_S-105">
          <mxGeometry x="30" width="190" height="30" as="geometry" />
        </mxCell>
        <mxCell id="UlUVK7WOqjUsJn8yde_S-108" value="pertanyaan" style="shape=table;startSize=30;container=1;collapsible=1;childLayout=tableLayout;fixedRows=1;rowLines=0;fontStyle=1;align=center;resizeLast=1;" vertex="1" parent="1">
          <mxGeometry x="420" y="20" width="180" height="280" as="geometry" />
        </mxCell>
        <mxCell id="UlUVK7WOqjUsJn8yde_S-109" value="" style="shape=partialRectangle;collapsible=0;dropTarget=0;pointerEvents=0;fillColor=none;top=0;left=0;bottom=1;right=0;points=[[0,0.5],[1,0.5]];portConstraint=eastwest;" vertex="1" parent="UlUVK7WOqjUsJn8yde_S-108">
          <mxGeometry y="30" width="180" height="30" as="geometry" />
        </mxCell>
        <mxCell id="UlUVK7WOqjUsJn8yde_S-110" value="PK" style="shape=partialRectangle;connectable=0;fillColor=none;top=0;left=0;bottom=0;right=0;fontStyle=1;overflow=hidden;" vertex="1" parent="UlUVK7WOqjUsJn8yde_S-109">
          <mxGeometry width="30" height="30" as="geometry" />
        </mxCell>
        <mxCell id="UlUVK7WOqjUsJn8yde_S-111" value="id (INT(7))" style="shape=partialRectangle;connectable=0;fillColor=none;top=0;left=0;bottom=0;right=0;align=left;spacingLeft=6;fontStyle=5;overflow=hidden;" vertex="1" parent="UlUVK7WOqjUsJn8yde_S-109">
          <mxGeometry x="30" width="150" height="30" as="geometry" />
        </mxCell>
        <mxCell id="UlUVK7WOqjUsJn8yde_S-112" value="" style="shape=partialRectangle;collapsible=0;dropTarget=0;pointerEvents=0;fillColor=none;top=0;left=0;bottom=1;right=0;points=[[0,0.5],[1,0.5]];portConstraint=eastwest;" vertex="1" parent="UlUVK7WOqjUsJn8yde_S-108">
          <mxGeometry y="60" width="180" height="30" as="geometry" />
        </mxCell>
        <mxCell id="UlUVK7WOqjUsJn8yde_S-113" value="FK" style="shape=partialRectangle;connectable=0;fillColor=none;top=0;left=0;bottom=0;right=0;fontStyle=1;overflow=hidden;" vertex="1" parent="UlUVK7WOqjUsJn8yde_S-112">
          <mxGeometry width="30" height="30" as="geometry" />
        </mxCell>
        <mxCell id="UlUVK7WOqjUsJn8yde_S-114" value="id_user (INT(7))" style="shape=partialRectangle;connectable=0;fillColor=none;top=0;left=0;bottom=0;right=0;align=left;spacingLeft=6;fontStyle=5;overflow=hidden;" vertex="1" parent="UlUVK7WOqjUsJn8yde_S-112">
          <mxGeometry x="30" width="150" height="30" as="geometry" />
        </mxCell>
        <mxCell id="UlUVK7WOqjUsJn8yde_S-115" value="" style="shape=partialRectangle;collapsible=0;dropTarget=0;pointerEvents=0;fillColor=none;top=0;left=0;bottom=0;right=0;points=[[0,0.5],[1,0.5]];portConstraint=eastwest;" vertex="1" parent="UlUVK7WOqjUsJn8yde_S-108">
          <mxGeometry y="90" width="180" height="30" as="geometry" />
        </mxCell>
        <mxCell id="UlUVK7WOqjUsJn8yde_S-116" value="" style="shape=partialRectangle;connectable=0;fillColor=none;top=0;left=0;bottom=0;right=0;editable=1;overflow=hidden;" vertex="1" parent="UlUVK7WOqjUsJn8yde_S-115">
          <mxGeometry width="30" height="30" as="geometry" />
        </mxCell>
        <mxCell id="UlUVK7WOqjUsJn8yde_S-117" value="judul (VARCHAR(40))" style="shape=partialRectangle;connectable=0;fillColor=none;top=0;left=0;bottom=0;right=0;align=left;spacingLeft=6;overflow=hidden;" vertex="1" parent="UlUVK7WOqjUsJn8yde_S-115">
          <mxGeometry x="30" width="150" height="30" as="geometry" />
        </mxCell>
        <mxCell id="UlUVK7WOqjUsJn8yde_S-118" value="" style="shape=partialRectangle;collapsible=0;dropTarget=0;pointerEvents=0;fillColor=none;top=0;left=0;bottom=0;right=0;points=[[0,0.5],[1,0.5]];portConstraint=eastwest;" vertex="1" parent="UlUVK7WOqjUsJn8yde_S-108">
          <mxGeometry y="120" width="180" height="30" as="geometry" />
        </mxCell>
        <mxCell id="UlUVK7WOqjUsJn8yde_S-119" value="" style="shape=partialRectangle;connectable=0;fillColor=none;top=0;left=0;bottom=0;right=0;editable=1;overflow=hidden;" vertex="1" parent="UlUVK7WOqjUsJn8yde_S-118">
          <mxGeometry width="30" height="30" as="geometry" />
        </mxCell>
        <mxCell id="UlUVK7WOqjUsJn8yde_S-120" value="isi (VARCHAR(120))" style="shape=partialRectangle;connectable=0;fillColor=none;top=0;left=0;bottom=0;right=0;align=left;spacingLeft=6;overflow=hidden;" vertex="1" parent="UlUVK7WOqjUsJn8yde_S-118">
          <mxGeometry x="30" width="150" height="30" as="geometry" />
        </mxCell>
        <mxCell id="UlUVK7WOqjUsJn8yde_S-121" value="" style="shape=partialRectangle;collapsible=0;dropTarget=0;pointerEvents=0;fillColor=none;top=0;left=0;bottom=0;right=0;points=[[0,0.5],[1,0.5]];portConstraint=eastwest;" vertex="1" parent="UlUVK7WOqjUsJn8yde_S-108">
          <mxGeometry y="150" width="180" height="30" as="geometry" />
        </mxCell>
        <mxCell id="UlUVK7WOqjUsJn8yde_S-122" value="" style="shape=partialRectangle;connectable=0;fillColor=none;top=0;left=0;bottom=0;right=0;editable=1;overflow=hidden;" vertex="1" parent="UlUVK7WOqjUsJn8yde_S-121">
          <mxGeometry width="30" height="30" as="geometry" />
        </mxCell>
        <mxCell id="UlUVK7WOqjUsJn8yde_S-123" value="tgl_dibuat (DATE)" style="shape=partialRectangle;connectable=0;fillColor=none;top=0;left=0;bottom=0;right=0;align=left;spacingLeft=6;overflow=hidden;" vertex="1" parent="UlUVK7WOqjUsJn8yde_S-121">
          <mxGeometry x="30" width="150" height="30" as="geometry" />
        </mxCell>
        <mxCell id="UlUVK7WOqjUsJn8yde_S-124" value="" style="shape=partialRectangle;collapsible=0;dropTarget=0;pointerEvents=0;fillColor=none;top=0;left=0;bottom=0;right=0;points=[[0,0.5],[1,0.5]];portConstraint=eastwest;" vertex="1" parent="UlUVK7WOqjUsJn8yde_S-108">
          <mxGeometry y="180" width="180" height="30" as="geometry" />
        </mxCell>
        <mxCell id="UlUVK7WOqjUsJn8yde_S-125" value="" style="shape=partialRectangle;connectable=0;fillColor=none;top=0;left=0;bottom=0;right=0;editable=1;overflow=hidden;" vertex="1" parent="UlUVK7WOqjUsJn8yde_S-124">
          <mxGeometry width="30" height="30" as="geometry" />
        </mxCell>
        <mxCell id="UlUVK7WOqjUsJn8yde_S-126" value="tgl_diperbaharui (DATE)" style="shape=partialRectangle;connectable=0;fillColor=none;top=0;left=0;bottom=0;right=0;align=left;spacingLeft=6;overflow=hidden;" vertex="1" parent="UlUVK7WOqjUsJn8yde_S-124">
          <mxGeometry x="30" width="150" height="30" as="geometry" />
        </mxCell>
        <mxCell id="UlUVK7WOqjUsJn8yde_S-127" value="" style="shape=partialRectangle;collapsible=0;dropTarget=0;pointerEvents=0;fillColor=none;top=0;left=0;bottom=0;right=0;points=[[0,0.5],[1,0.5]];portConstraint=eastwest;" vertex="1" parent="UlUVK7WOqjUsJn8yde_S-108">
          <mxGeometry y="210" width="180" height="30" as="geometry" />
        </mxCell>
        <mxCell id="UlUVK7WOqjUsJn8yde_S-128" value="" style="shape=partialRectangle;connectable=0;fillColor=none;top=0;left=0;bottom=0;right=0;editable=1;overflow=hidden;" vertex="1" parent="UlUVK7WOqjUsJn8yde_S-127">
          <mxGeometry width="30" height="30" as="geometry" />
        </mxCell>
        <mxCell id="UlUVK7WOqjUsJn8yde_S-129" value="like (INT(4))" style="shape=partialRectangle;connectable=0;fillColor=none;top=0;left=0;bottom=0;right=0;align=left;spacingLeft=6;overflow=hidden;" vertex="1" parent="UlUVK7WOqjUsJn8yde_S-127">
          <mxGeometry x="30" width="150" height="30" as="geometry" />
        </mxCell>
        <mxCell id="UlUVK7WOqjUsJn8yde_S-130" value="" style="shape=partialRectangle;collapsible=0;dropTarget=0;pointerEvents=0;fillColor=none;top=0;left=0;bottom=0;right=0;points=[[0,0.5],[1,0.5]];portConstraint=eastwest;" vertex="1" parent="UlUVK7WOqjUsJn8yde_S-108">
          <mxGeometry y="240" width="180" height="30" as="geometry" />
        </mxCell>
        <mxCell id="UlUVK7WOqjUsJn8yde_S-131" value="" style="shape=partialRectangle;connectable=0;fillColor=none;top=0;left=0;bottom=0;right=0;editable=1;overflow=hidden;" vertex="1" parent="UlUVK7WOqjUsJn8yde_S-130">
          <mxGeometry width="30" height="30" as="geometry" />
        </mxCell>
        <mxCell id="UlUVK7WOqjUsJn8yde_S-132" value="dislike (INT(4))" style="shape=partialRectangle;connectable=0;fillColor=none;top=0;left=0;bottom=0;right=0;align=left;spacingLeft=6;overflow=hidden;" vertex="1" parent="UlUVK7WOqjUsJn8yde_S-130">
          <mxGeometry x="30" width="150" height="30" as="geometry" />
        </mxCell>
        <mxCell id="UlUVK7WOqjUsJn8yde_S-133" value="jawaban" style="shape=table;startSize=30;container=1;collapsible=1;childLayout=tableLayout;fixedRows=1;rowLines=0;fontStyle=1;align=center;resizeLast=1;" vertex="1" parent="1">
          <mxGeometry x="420" y="320" width="180" height="280" as="geometry" />
        </mxCell>
        <mxCell id="UlUVK7WOqjUsJn8yde_S-134" value="" style="shape=partialRectangle;collapsible=0;dropTarget=0;pointerEvents=0;fillColor=none;top=0;left=0;bottom=1;right=0;points=[[0,0.5],[1,0.5]];portConstraint=eastwest;" vertex="1" parent="UlUVK7WOqjUsJn8yde_S-133">
          <mxGeometry y="30" width="180" height="30" as="geometry" />
        </mxCell>
        <mxCell id="UlUVK7WOqjUsJn8yde_S-135" value="PK" style="shape=partialRectangle;connectable=0;fillColor=none;top=0;left=0;bottom=0;right=0;fontStyle=1;overflow=hidden;" vertex="1" parent="UlUVK7WOqjUsJn8yde_S-134">
          <mxGeometry width="30" height="30" as="geometry" />
        </mxCell>
        <mxCell id="UlUVK7WOqjUsJn8yde_S-136" value="id (INT(7))" style="shape=partialRectangle;connectable=0;fillColor=none;top=0;left=0;bottom=0;right=0;align=left;spacingLeft=6;fontStyle=5;overflow=hidden;" vertex="1" parent="UlUVK7WOqjUsJn8yde_S-134">
          <mxGeometry x="30" width="150" height="30" as="geometry" />
        </mxCell>
        <mxCell id="UlUVK7WOqjUsJn8yde_S-137" value="" style="shape=partialRectangle;collapsible=0;dropTarget=0;pointerEvents=0;fillColor=none;top=0;left=0;bottom=1;right=0;points=[[0,0.5],[1,0.5]];portConstraint=eastwest;" vertex="1" parent="UlUVK7WOqjUsJn8yde_S-133">
          <mxGeometry y="60" width="180" height="30" as="geometry" />
        </mxCell>
        <mxCell id="UlUVK7WOqjUsJn8yde_S-138" value="FK" style="shape=partialRectangle;connectable=0;fillColor=none;top=0;left=0;bottom=0;right=0;fontStyle=1;overflow=hidden;" vertex="1" parent="UlUVK7WOqjUsJn8yde_S-137">
          <mxGeometry width="30" height="30" as="geometry" />
        </mxCell>
        <mxCell id="UlUVK7WOqjUsJn8yde_S-139" value="id_user (INT(7))" style="shape=partialRectangle;connectable=0;fillColor=none;top=0;left=0;bottom=0;right=0;align=left;spacingLeft=6;fontStyle=5;overflow=hidden;" vertex="1" parent="UlUVK7WOqjUsJn8yde_S-137">
          <mxGeometry x="30" width="150" height="30" as="geometry" />
        </mxCell>
        <mxCell id="UlUVK7WOqjUsJn8yde_S-140" value="" style="shape=partialRectangle;collapsible=0;dropTarget=0;pointerEvents=0;fillColor=none;top=0;left=0;bottom=0;right=0;points=[[0,0.5],[1,0.5]];portConstraint=eastwest;" vertex="1" parent="UlUVK7WOqjUsJn8yde_S-133">
          <mxGeometry y="90" width="180" height="30" as="geometry" />
        </mxCell>
        <mxCell id="UlUVK7WOqjUsJn8yde_S-141" value="" style="shape=partialRectangle;connectable=0;fillColor=none;top=0;left=0;bottom=0;right=0;editable=1;overflow=hidden;" vertex="1" parent="UlUVK7WOqjUsJn8yde_S-140">
          <mxGeometry width="30" height="30" as="geometry" />
        </mxCell>
        <mxCell id="UlUVK7WOqjUsJn8yde_S-142" value="isi (VARCHAR(120))" style="shape=partialRectangle;connectable=0;fillColor=none;top=0;left=0;bottom=0;right=0;align=left;spacingLeft=6;overflow=hidden;" vertex="1" parent="UlUVK7WOqjUsJn8yde_S-140">
          <mxGeometry x="30" width="150" height="30" as="geometry" />
        </mxCell>
        <mxCell id="UlUVK7WOqjUsJn8yde_S-143" value="" style="shape=partialRectangle;collapsible=0;dropTarget=0;pointerEvents=0;fillColor=none;top=0;left=0;bottom=0;right=0;points=[[0,0.5],[1,0.5]];portConstraint=eastwest;" vertex="1" parent="UlUVK7WOqjUsJn8yde_S-133">
          <mxGeometry y="120" width="180" height="30" as="geometry" />
        </mxCell>
        <mxCell id="UlUVK7WOqjUsJn8yde_S-144" value="" style="shape=partialRectangle;connectable=0;fillColor=none;top=0;left=0;bottom=0;right=0;editable=1;overflow=hidden;" vertex="1" parent="UlUVK7WOqjUsJn8yde_S-143">
          <mxGeometry width="30" height="30" as="geometry" />
        </mxCell>
        <mxCell id="UlUVK7WOqjUsJn8yde_S-145" value="tgl_dibuat (DATE)" style="shape=partialRectangle;connectable=0;fillColor=none;top=0;left=0;bottom=0;right=0;align=left;spacingLeft=6;overflow=hidden;" vertex="1" parent="UlUVK7WOqjUsJn8yde_S-143">
          <mxGeometry x="30" width="150" height="30" as="geometry" />
        </mxCell>
        <mxCell id="UlUVK7WOqjUsJn8yde_S-146" value="" style="shape=partialRectangle;collapsible=0;dropTarget=0;pointerEvents=0;fillColor=none;top=0;left=0;bottom=0;right=0;points=[[0,0.5],[1,0.5]];portConstraint=eastwest;" vertex="1" parent="UlUVK7WOqjUsJn8yde_S-133">
          <mxGeometry y="150" width="180" height="30" as="geometry" />
        </mxCell>
        <mxCell id="UlUVK7WOqjUsJn8yde_S-147" value="" style="shape=partialRectangle;connectable=0;fillColor=none;top=0;left=0;bottom=0;right=0;editable=1;overflow=hidden;" vertex="1" parent="UlUVK7WOqjUsJn8yde_S-146">
          <mxGeometry width="30" height="30" as="geometry" />
        </mxCell>
        <mxCell id="UlUVK7WOqjUsJn8yde_S-148" value="tgl_diperbaharui (DATE)" style="shape=partialRectangle;connectable=0;fillColor=none;top=0;left=0;bottom=0;right=0;align=left;spacingLeft=6;overflow=hidden;" vertex="1" parent="UlUVK7WOqjUsJn8yde_S-146">
          <mxGeometry x="30" width="150" height="30" as="geometry" />
        </mxCell>
        <mxCell id="UlUVK7WOqjUsJn8yde_S-149" value="" style="shape=partialRectangle;collapsible=0;dropTarget=0;pointerEvents=0;fillColor=none;top=0;left=0;bottom=0;right=0;points=[[0,0.5],[1,0.5]];portConstraint=eastwest;" vertex="1" parent="UlUVK7WOqjUsJn8yde_S-133">
          <mxGeometry y="180" width="180" height="30" as="geometry" />
        </mxCell>
        <mxCell id="UlUVK7WOqjUsJn8yde_S-150" value="" style="shape=partialRectangle;connectable=0;fillColor=none;top=0;left=0;bottom=0;right=0;editable=1;overflow=hidden;" vertex="1" parent="UlUVK7WOqjUsJn8yde_S-149">
          <mxGeometry width="30" height="30" as="geometry" />
        </mxCell>
        <mxCell id="UlUVK7WOqjUsJn8yde_S-151" value="like (INT(4))" style="shape=partialRectangle;connectable=0;fillColor=none;top=0;left=0;bottom=0;right=0;align=left;spacingLeft=6;overflow=hidden;" vertex="1" parent="UlUVK7WOqjUsJn8yde_S-149">
          <mxGeometry x="30" width="150" height="30" as="geometry" />
        </mxCell>
        <mxCell id="UlUVK7WOqjUsJn8yde_S-152" value="" style="shape=partialRectangle;collapsible=0;dropTarget=0;pointerEvents=0;fillColor=none;top=0;left=0;bottom=0;right=0;points=[[0,0.5],[1,0.5]];portConstraint=eastwest;" vertex="1" parent="UlUVK7WOqjUsJn8yde_S-133">
          <mxGeometry y="210" width="180" height="30" as="geometry" />
        </mxCell>
        <mxCell id="UlUVK7WOqjUsJn8yde_S-153" value="" style="shape=partialRectangle;connectable=0;fillColor=none;top=0;left=0;bottom=0;right=0;editable=1;overflow=hidden;" vertex="1" parent="UlUVK7WOqjUsJn8yde_S-152">
          <mxGeometry width="30" height="30" as="geometry" />
        </mxCell>
        <mxCell id="UlUVK7WOqjUsJn8yde_S-154" value="dislike (INT(4))" style="shape=partialRectangle;connectable=0;fillColor=none;top=0;left=0;bottom=0;right=0;align=left;spacingLeft=6;overflow=hidden;" vertex="1" parent="UlUVK7WOqjUsJn8yde_S-152">
          <mxGeometry x="30" width="150" height="30" as="geometry" />
        </mxCell>
        <mxCell id="UlUVK7WOqjUsJn8yde_S-155" value="" style="shape=partialRectangle;collapsible=0;dropTarget=0;pointerEvents=0;fillColor=none;top=0;left=0;bottom=0;right=0;points=[[0,0.5],[1,0.5]];portConstraint=eastwest;" vertex="1" parent="UlUVK7WOqjUsJn8yde_S-133">
          <mxGeometry y="240" width="180" height="30" as="geometry" />
        </mxCell>
        <mxCell id="UlUVK7WOqjUsJn8yde_S-156" value="" style="shape=partialRectangle;connectable=0;fillColor=none;top=0;left=0;bottom=0;right=0;editable=1;overflow=hidden;" vertex="1" parent="UlUVK7WOqjUsJn8yde_S-155">
          <mxGeometry width="30" height="30" as="geometry" />
        </mxCell>
        <mxCell id="UlUVK7WOqjUsJn8yde_S-157" value="pertanyaan_id (INT(7))" style="shape=partialRectangle;connectable=0;fillColor=none;top=0;left=0;bottom=0;right=0;align=left;spacingLeft=6;overflow=hidden;" vertex="1" parent="UlUVK7WOqjUsJn8yde_S-155">
          <mxGeometry x="30" width="150" height="30" as="geometry" />
        </mxCell>
        <mxCell id="UlUVK7WOqjUsJn8yde_S-158" value="" style="edgeStyle=entityRelationEdgeStyle;fontSize=12;html=1;endArrow=ERoneToMany;entryX=0;entryY=0.5;entryDx=0;entryDy=0;exitX=1;exitY=0.5;exitDx=0;exitDy=0;" edge="1" parent="1" source="UlUVK7WOqjUsJn8yde_S-93" target="UlUVK7WOqjUsJn8yde_S-112">
          <mxGeometry width="100" height="100" relative="1" as="geometry">
            <mxPoint x="370" y="260" as="sourcePoint" />
            <mxPoint x="470" y="160" as="targetPoint" />
          </mxGeometry>
        </mxCell>
        <mxCell id="UlUVK7WOqjUsJn8yde_S-159" value="" style="edgeStyle=entityRelationEdgeStyle;fontSize=12;html=1;endArrow=ERoneToMany;entryX=0;entryY=0.5;entryDx=0;entryDy=0;exitX=1;exitY=0.5;exitDx=0;exitDy=0;" edge="1" parent="1" source="UlUVK7WOqjUsJn8yde_S-93" target="UlUVK7WOqjUsJn8yde_S-137">
          <mxGeometry width="100" height="100" relative="1" as="geometry">
            <mxPoint x="370" y="260" as="sourcePoint" />
            <mxPoint x="470" y="160" as="targetPoint" />
          </mxGeometry>
        </mxCell>
        <mxCell id="UlUVK7WOqjUsJn8yde_S-160" value="" style="edgeStyle=orthogonalEdgeStyle;fontSize=12;html=1;endArrow=ERoneToMany;entryX=0;entryY=0.5;entryDx=0;entryDy=0;exitX=1;exitY=0.5;exitDx=0;exitDy=0;" edge="1" parent="1" source="UlUVK7WOqjUsJn8yde_S-93" target="UlUVK7WOqjUsJn8yde_S-168">
          <mxGeometry width="100" height="100" relative="1" as="geometry">
            <mxPoint x="90" y="120" as="sourcePoint" />
            <mxPoint x="150" y="560" as="targetPoint" />
            <Array as="points">
              <mxPoint x="350" y="95" />
              <mxPoint x="350" y="270" />
              <mxPoint x="100" y="270" />
              <mxPoint x="100" y="475" />
            </Array>
          </mxGeometry>
        </mxCell>
        <mxCell id="UlUVK7WOqjUsJn8yde_S-161" value="" style="edgeStyle=orthogonalEdgeStyle;fontSize=12;html=1;endArrow=ERoneToMany;exitX=1;exitY=0.5;exitDx=0;exitDy=0;entryX=1;entryY=0.5;entryDx=0;entryDy=0;" edge="1" parent="1" source="UlUVK7WOqjUsJn8yde_S-109" target="UlUVK7WOqjUsJn8yde_S-155">
          <mxGeometry width="100" height="100" relative="1" as="geometry">
            <mxPoint x="760" y="220" as="sourcePoint" />
            <mxPoint x="690" y="330" as="targetPoint" />
            <Array as="points">
              <mxPoint x="640" y="65" />
              <mxPoint x="640" y="575" />
            </Array>
          </mxGeometry>
        </mxCell>
        <mxCell id="UlUVK7WOqjUsJn8yde_S-162" value="" style="edgeStyle=entityRelationEdgeStyle;fontSize=12;html=1;endArrow=ERmany;startArrow=ERmany;exitX=1;exitY=0.5;exitDx=0;exitDy=0;entryX=0;entryY=0.5;entryDx=0;entryDy=0;" edge="1" parent="1" source="UlUVK7WOqjUsJn8yde_S-180" target="UlUVK7WOqjUsJn8yde_S-109">
          <mxGeometry width="100" height="100" relative="1" as="geometry">
            <mxPoint x="360" y="650" as="sourcePoint" />
            <mxPoint x="410" y="70" as="targetPoint" />
          </mxGeometry>
        </mxCell>
        <mxCell id="UlUVK7WOqjUsJn8yde_S-163" value="" style="edgeStyle=orthogonalEdgeStyle;fontSize=12;html=1;endArrow=ERmany;startArrow=ERmany;exitX=1;exitY=0.5;exitDx=0;exitDy=0;entryX=1;entryY=0.5;entryDx=0;entryDy=0;" edge="1" parent="1" source="UlUVK7WOqjUsJn8yde_S-177" target="UlUVK7WOqjUsJn8yde_S-134">
          <mxGeometry width="100" height="100" relative="1" as="geometry">
            <mxPoint x="370" y="740" as="sourcePoint" />
            <mxPoint x="680" y="510" as="targetPoint" />
            <Array as="points">
              <mxPoint x="390" y="565" />
              <mxPoint x="390" y="630" />
              <mxPoint x="700" y="630" />
              <mxPoint x="700" y="365" />
            </Array>
          </mxGeometry>
        </mxCell>
        <mxCell id="UlUVK7WOqjUsJn8yde_S-164" value="komentar" style="shape=table;startSize=30;container=1;collapsible=1;childLayout=tableLayout;fixedRows=1;rowLines=0;fontStyle=1;align=center;resizeLast=1;" vertex="1" parent="1">
          <mxGeometry x="120" y="400" width="220" height="220" as="geometry" />
        </mxCell>
        <mxCell id="UlUVK7WOqjUsJn8yde_S-165" value="" style="shape=partialRectangle;collapsible=0;dropTarget=0;pointerEvents=0;fillColor=none;top=0;left=0;bottom=1;right=0;points=[[0,0.5],[1,0.5]];portConstraint=eastwest;" vertex="1" parent="UlUVK7WOqjUsJn8yde_S-164">
          <mxGeometry y="30" width="220" height="30" as="geometry" />
        </mxCell>
        <mxCell id="UlUVK7WOqjUsJn8yde_S-166" value="PK" style="shape=partialRectangle;connectable=0;fillColor=none;top=0;left=0;bottom=0;right=0;fontStyle=1;overflow=hidden;" vertex="1" parent="UlUVK7WOqjUsJn8yde_S-165">
          <mxGeometry width="30" height="30" as="geometry" />
        </mxCell>
        <mxCell id="UlUVK7WOqjUsJn8yde_S-167" value="id (INT(7))" style="shape=partialRectangle;connectable=0;fillColor=none;top=0;left=0;bottom=0;right=0;align=left;spacingLeft=6;fontStyle=5;overflow=hidden;" vertex="1" parent="UlUVK7WOqjUsJn8yde_S-165">
          <mxGeometry x="30" width="190" height="30" as="geometry" />
        </mxCell>
        <mxCell id="UlUVK7WOqjUsJn8yde_S-168" value="" style="shape=partialRectangle;collapsible=0;dropTarget=0;pointerEvents=0;fillColor=none;top=0;left=0;bottom=1;right=0;points=[[0,0.5],[1,0.5]];portConstraint=eastwest;" vertex="1" parent="UlUVK7WOqjUsJn8yde_S-164">
          <mxGeometry y="60" width="220" height="30" as="geometry" />
        </mxCell>
        <mxCell id="UlUVK7WOqjUsJn8yde_S-169" value="FK" style="shape=partialRectangle;connectable=0;fillColor=none;top=0;left=0;bottom=0;right=0;fontStyle=1;overflow=hidden;" vertex="1" parent="UlUVK7WOqjUsJn8yde_S-168">
          <mxGeometry width="30" height="30" as="geometry" />
        </mxCell>
        <mxCell id="UlUVK7WOqjUsJn8yde_S-170" value="pemberi_komentar_id (INT(7))" style="shape=partialRectangle;connectable=0;fillColor=none;top=0;left=0;bottom=0;right=0;align=left;spacingLeft=6;fontStyle=5;overflow=hidden;" vertex="1" parent="UlUVK7WOqjUsJn8yde_S-168">
          <mxGeometry x="30" width="190" height="30" as="geometry" />
        </mxCell>
        <mxCell id="UlUVK7WOqjUsJn8yde_S-171" value="" style="shape=partialRectangle;collapsible=0;dropTarget=0;pointerEvents=0;fillColor=none;top=0;left=0;bottom=0;right=0;points=[[0,0.5],[1,0.5]];portConstraint=eastwest;" vertex="1" parent="UlUVK7WOqjUsJn8yde_S-164">
          <mxGeometry y="90" width="220" height="30" as="geometry" />
        </mxCell>
        <mxCell id="UlUVK7WOqjUsJn8yde_S-172" value="" style="shape=partialRectangle;connectable=0;fillColor=none;top=0;left=0;bottom=0;right=0;editable=1;overflow=hidden;" vertex="1" parent="UlUVK7WOqjUsJn8yde_S-171">
          <mxGeometry width="30" height="30" as="geometry" />
        </mxCell>
        <mxCell id="UlUVK7WOqjUsJn8yde_S-173" value="isi (VARCHAR(120))" style="shape=partialRectangle;connectable=0;fillColor=none;top=0;left=0;bottom=0;right=0;align=left;spacingLeft=6;overflow=hidden;" vertex="1" parent="UlUVK7WOqjUsJn8yde_S-171">
          <mxGeometry x="30" width="190" height="30" as="geometry" />
        </mxCell>
        <mxCell id="UlUVK7WOqjUsJn8yde_S-174" value="" style="shape=partialRectangle;collapsible=0;dropTarget=0;pointerEvents=0;fillColor=none;top=0;left=0;bottom=0;right=0;points=[[0,0.5],[1,0.5]];portConstraint=eastwest;" vertex="1" parent="UlUVK7WOqjUsJn8yde_S-164">
          <mxGeometry y="120" width="220" height="30" as="geometry" />
        </mxCell>
        <mxCell id="UlUVK7WOqjUsJn8yde_S-175" value="" style="shape=partialRectangle;connectable=0;fillColor=none;top=0;left=0;bottom=0;right=0;editable=1;overflow=hidden;" vertex="1" parent="UlUVK7WOqjUsJn8yde_S-174">
          <mxGeometry width="30" height="30" as="geometry" />
        </mxCell>
        <mxCell id="UlUVK7WOqjUsJn8yde_S-176" value="tgl_dibuat (DATE)" style="shape=partialRectangle;connectable=0;fillColor=none;top=0;left=0;bottom=0;right=0;align=left;spacingLeft=6;overflow=hidden;" vertex="1" parent="UlUVK7WOqjUsJn8yde_S-174">
          <mxGeometry x="30" width="190" height="30" as="geometry" />
        </mxCell>
        <mxCell id="UlUVK7WOqjUsJn8yde_S-177" value="" style="shape=partialRectangle;collapsible=0;dropTarget=0;pointerEvents=0;fillColor=none;top=0;left=0;bottom=0;right=0;points=[[0,0.5],[1,0.5]];portConstraint=eastwest;" vertex="1" parent="UlUVK7WOqjUsJn8yde_S-164">
          <mxGeometry y="150" width="220" height="30" as="geometry" />
        </mxCell>
        <mxCell id="UlUVK7WOqjUsJn8yde_S-178" value="" style="shape=partialRectangle;connectable=0;fillColor=none;top=0;left=0;bottom=0;right=0;editable=1;overflow=hidden;" vertex="1" parent="UlUVK7WOqjUsJn8yde_S-177">
          <mxGeometry width="30" height="30" as="geometry" />
        </mxCell>
        <mxCell id="UlUVK7WOqjUsJn8yde_S-179" value="jawaban_id (INT(7))" style="shape=partialRectangle;connectable=0;fillColor=none;top=0;left=0;bottom=0;right=0;align=left;spacingLeft=6;overflow=hidden;" vertex="1" parent="UlUVK7WOqjUsJn8yde_S-177">
          <mxGeometry x="30" width="190" height="30" as="geometry" />
        </mxCell>
        <mxCell id="UlUVK7WOqjUsJn8yde_S-180" value="" style="shape=partialRectangle;collapsible=0;dropTarget=0;pointerEvents=0;fillColor=none;top=0;left=0;bottom=0;right=0;points=[[0,0.5],[1,0.5]];portConstraint=eastwest;" vertex="1" parent="UlUVK7WOqjUsJn8yde_S-164">
          <mxGeometry y="180" width="220" height="30" as="geometry" />
        </mxCell>
        <mxCell id="UlUVK7WOqjUsJn8yde_S-181" value="" style="shape=partialRectangle;connectable=0;fillColor=none;top=0;left=0;bottom=0;right=0;editable=1;overflow=hidden;" vertex="1" parent="UlUVK7WOqjUsJn8yde_S-180">
          <mxGeometry width="30" height="30" as="geometry" />
        </mxCell>
        <mxCell id="UlUVK7WOqjUsJn8yde_S-182" value="pertanyaan_id (INT(7))" style="shape=partialRectangle;connectable=0;fillColor=none;top=0;left=0;bottom=0;right=0;align=left;spacingLeft=6;overflow=hidden;" vertex="1" parent="UlUVK7WOqjUsJn8yde_S-180">
          <mxGeometry x="30" width="190" height="30" as="geometry" />
        </mxCell>
        <mxCell id="UlUVK7WOqjUsJn8yde_S-183" value="lowongan_kerja" style="shape=table;startSize=30;container=1;collapsible=1;childLayout=tableLayout;fixedRows=1;rowLines=0;fontStyle=1;align=center;resizeLast=1;" vertex="1" parent="1">
          <mxGeometry x="190" y="680" width="180" height="250" as="geometry" />
        </mxCell>
        <mxCell id="UlUVK7WOqjUsJn8yde_S-184" value="" style="shape=partialRectangle;collapsible=0;dropTarget=0;pointerEvents=0;fillColor=none;top=0;left=0;bottom=1;right=0;points=[[0,0.5],[1,0.5]];portConstraint=eastwest;" vertex="1" parent="UlUVK7WOqjUsJn8yde_S-183">
          <mxGeometry y="30" width="180" height="30" as="geometry" />
        </mxCell>
        <mxCell id="UlUVK7WOqjUsJn8yde_S-185" value="PK" style="shape=partialRectangle;connectable=0;fillColor=none;top=0;left=0;bottom=0;right=0;fontStyle=1;overflow=hidden;" vertex="1" parent="UlUVK7WOqjUsJn8yde_S-184">
          <mxGeometry width="30" height="30" as="geometry" />
        </mxCell>
        <mxCell id="UlUVK7WOqjUsJn8yde_S-186" value="id" style="shape=partialRectangle;connectable=0;fillColor=none;top=0;left=0;bottom=0;right=0;align=left;spacingLeft=6;fontStyle=5;overflow=hidden;" vertex="1" parent="UlUVK7WOqjUsJn8yde_S-184">
          <mxGeometry x="30" width="150" height="30" as="geometry" />
        </mxCell>
        <mxCell id="UlUVK7WOqjUsJn8yde_S-202" value="" style="shape=partialRectangle;collapsible=0;dropTarget=0;pointerEvents=0;fillColor=none;top=0;left=0;bottom=1;right=0;points=[[0,0.5],[1,0.5]];portConstraint=eastwest;" vertex="1" parent="UlUVK7WOqjUsJn8yde_S-183">
          <mxGeometry y="60" width="180" height="30" as="geometry" />
        </mxCell>
        <mxCell id="UlUVK7WOqjUsJn8yde_S-203" value="PK" style="shape=partialRectangle;connectable=0;fillColor=none;top=0;left=0;bottom=0;right=0;fontStyle=1;overflow=hidden;" vertex="1" parent="UlUVK7WOqjUsJn8yde_S-202">
          <mxGeometry width="30" height="30" as="geometry" />
        </mxCell>
        <mxCell id="UlUVK7WOqjUsJn8yde_S-204" value="user_id" style="shape=partialRectangle;connectable=0;fillColor=none;top=0;left=0;bottom=0;right=0;align=left;spacingLeft=6;fontStyle=5;overflow=hidden;" vertex="1" parent="UlUVK7WOqjUsJn8yde_S-202">
          <mxGeometry x="30" width="150" height="30" as="geometry" />
        </mxCell>
        <mxCell id="UlUVK7WOqjUsJn8yde_S-187" value="" style="shape=partialRectangle;collapsible=0;dropTarget=0;pointerEvents=0;fillColor=none;top=0;left=0;bottom=0;right=0;points=[[0,0.5],[1,0.5]];portConstraint=eastwest;" vertex="1" parent="UlUVK7WOqjUsJn8yde_S-183">
          <mxGeometry y="90" width="180" height="30" as="geometry" />
        </mxCell>
        <mxCell id="UlUVK7WOqjUsJn8yde_S-188" value="" style="shape=partialRectangle;connectable=0;fillColor=none;top=0;left=0;bottom=0;right=0;editable=1;overflow=hidden;" vertex="1" parent="UlUVK7WOqjUsJn8yde_S-187">
          <mxGeometry width="30" height="30" as="geometry" />
        </mxCell>
        <mxCell id="UlUVK7WOqjUsJn8yde_S-189" value="nama_lowongan" style="shape=partialRectangle;connectable=0;fillColor=none;top=0;left=0;bottom=0;right=0;align=left;spacingLeft=6;overflow=hidden;" vertex="1" parent="UlUVK7WOqjUsJn8yde_S-187">
          <mxGeometry x="30" width="150" height="30" as="geometry" />
        </mxCell>
        <mxCell id="UlUVK7WOqjUsJn8yde_S-190" value="" style="shape=partialRectangle;collapsible=0;dropTarget=0;pointerEvents=0;fillColor=none;top=0;left=0;bottom=0;right=0;points=[[0,0.5],[1,0.5]];portConstraint=eastwest;" vertex="1" parent="UlUVK7WOqjUsJn8yde_S-183">
          <mxGeometry y="120" width="180" height="30" as="geometry" />
        </mxCell>
        <mxCell id="UlUVK7WOqjUsJn8yde_S-191" value="" style="shape=partialRectangle;connectable=0;fillColor=none;top=0;left=0;bottom=0;right=0;editable=1;overflow=hidden;" vertex="1" parent="UlUVK7WOqjUsJn8yde_S-190">
          <mxGeometry width="30" height="30" as="geometry" />
        </mxCell>
        <mxCell id="UlUVK7WOqjUsJn8yde_S-192" value="nama_perusahaan" style="shape=partialRectangle;connectable=0;fillColor=none;top=0;left=0;bottom=0;right=0;align=left;spacingLeft=6;overflow=hidden;" vertex="1" parent="UlUVK7WOqjUsJn8yde_S-190">
          <mxGeometry x="30" width="150" height="30" as="geometry" />
        </mxCell>
        <mxCell id="UlUVK7WOqjUsJn8yde_S-193" value="" style="shape=partialRectangle;collapsible=0;dropTarget=0;pointerEvents=0;fillColor=none;top=0;left=0;bottom=0;right=0;points=[[0,0.5],[1,0.5]];portConstraint=eastwest;" vertex="1" parent="UlUVK7WOqjUsJn8yde_S-183">
          <mxGeometry y="150" width="180" height="30" as="geometry" />
        </mxCell>
        <mxCell id="UlUVK7WOqjUsJn8yde_S-194" value="" style="shape=partialRectangle;connectable=0;fillColor=none;top=0;left=0;bottom=0;right=0;editable=1;overflow=hidden;" vertex="1" parent="UlUVK7WOqjUsJn8yde_S-193">
          <mxGeometry width="30" height="30" as="geometry" />
        </mxCell>
        <mxCell id="UlUVK7WOqjUsJn8yde_S-195" value="syarat" style="shape=partialRectangle;connectable=0;fillColor=none;top=0;left=0;bottom=0;right=0;align=left;spacingLeft=6;overflow=hidden;" vertex="1" parent="UlUVK7WOqjUsJn8yde_S-193">
          <mxGeometry x="30" width="150" height="30" as="geometry" />
        </mxCell>
        <mxCell id="UlUVK7WOqjUsJn8yde_S-196" value="" style="shape=partialRectangle;collapsible=0;dropTarget=0;pointerEvents=0;fillColor=none;top=0;left=0;bottom=0;right=0;points=[[0,0.5],[1,0.5]];portConstraint=eastwest;" vertex="1" parent="UlUVK7WOqjUsJn8yde_S-183">
          <mxGeometry y="180" width="180" height="30" as="geometry" />
        </mxCell>
        <mxCell id="UlUVK7WOqjUsJn8yde_S-197" value="" style="shape=partialRectangle;connectable=0;fillColor=none;top=0;left=0;bottom=0;right=0;editable=1;overflow=hidden;" vertex="1" parent="UlUVK7WOqjUsJn8yde_S-196">
          <mxGeometry width="30" height="30" as="geometry" />
        </mxCell>
        <mxCell id="UlUVK7WOqjUsJn8yde_S-198" value="tgl_daftar" style="shape=partialRectangle;connectable=0;fillColor=none;top=0;left=0;bottom=0;right=0;align=left;spacingLeft=6;overflow=hidden;" vertex="1" parent="UlUVK7WOqjUsJn8yde_S-196">
          <mxGeometry x="30" width="150" height="30" as="geometry" />
        </mxCell>
        <mxCell id="UlUVK7WOqjUsJn8yde_S-199" value="" style="shape=partialRectangle;collapsible=0;dropTarget=0;pointerEvents=0;fillColor=none;top=0;left=0;bottom=0;right=0;points=[[0,0.5],[1,0.5]];portConstraint=eastwest;" vertex="1" parent="UlUVK7WOqjUsJn8yde_S-183">
          <mxGeometry y="210" width="180" height="30" as="geometry" />
        </mxCell>
        <mxCell id="UlUVK7WOqjUsJn8yde_S-200" value="" style="shape=partialRectangle;connectable=0;fillColor=none;top=0;left=0;bottom=0;right=0;editable=1;overflow=hidden;" vertex="1" parent="UlUVK7WOqjUsJn8yde_S-199">
          <mxGeometry width="30" height="30" as="geometry" />
        </mxCell>
        <mxCell id="UlUVK7WOqjUsJn8yde_S-201" value="tgl_tutup_lowongan" style="shape=partialRectangle;connectable=0;fillColor=none;top=0;left=0;bottom=0;right=0;align=left;spacingLeft=6;overflow=hidden;" vertex="1" parent="UlUVK7WOqjUsJn8yde_S-199">
          <mxGeometry x="30" width="150" height="30" as="geometry" />
        </mxCell>
        <mxCell id="UlUVK7WOqjUsJn8yde_S-205" value="" style="edgeStyle=orthogonalEdgeStyle;fontSize=12;html=1;endArrow=ERmany;startArrow=ERmany;exitX=0;exitY=0.5;exitDx=0;exitDy=0;entryX=0;entryY=0.5;entryDx=0;entryDy=0;" edge="1" parent="1" source="UlUVK7WOqjUsJn8yde_S-202" target="UlUVK7WOqjUsJn8yde_S-93">
          <mxGeometry width="100" height="100" relative="1" as="geometry">
            <mxPoint x="40" y="840" as="sourcePoint" />
            <mxPoint x="60" y="210" as="targetPoint" />
            <Array as="points">
              <mxPoint x="50" y="755" />
              <mxPoint x="50" y="95" />
            </Array>
          </mxGeometry>
        </mxCell>
      </root>
    </mxGraphModel>
  </diagram>
</mxfile>
